# xmcd
#
# Track frame offsets:
#	150
#	28723
#	52918
#	78544
#	96814
#	113589
#	129488
#	155659
#	173811
#	193933
#	214706
#	238535
#
# Disc length: 3441 seconds
#
# Revision: 1
# Processed by: cddbd v1.5.2PL0 Copyright (c) Steve Scherf et al.
# Submitted via: EasyCDDAExtractor 11.0.0.1
#
DISCID=9b0d6f0c
DTITLE=อัสนี วสันต์
DYEAR=1900
DGENRE=Pop
TTITLE0=รุ้วกินน้ำ
TTITLE1=ผักชีโรยหน้า
TTITLE2=กระดี่ได้น้ำ
TTITLE3=ฟักทอง
TTITLE4=ทำดีได้ดี
TTITLE5=ให้มันเป็นไป
TTITLE6=สับปะรด
TTITLE7=สายล่อฟ้า
TTITLE8=วัวลืมตัว
TTITLE9=ร่ำไร
TTITLE10=เสี่ยวน้ำพึง
TTITLE11=ขลุ่ยผิว
EXTD=
EXTT0=
EXTT1=
EXTT2=
EXTT3=
EXTT4=
EXTT5=
EXTT6=
EXTT7=
EXTT8=
EXTT9=
EXTT10=
EXTT11=
PLAYORDER=
